<svg version="1.1" xmlns="http://www.w3.org/2000/svg" xmlns:xlink="http://www.w3.org/1999/xlink" width="6.82666in" height="6.82666in" viewBox="0,0,256,256"><g fill="none" fill-rule="none" stroke="none" stroke-width="1" stroke-linecap="butt" stroke-linejoin="miter" stroke-miterlimit="10" stroke-dasharray="" stroke-dashoffset="0" font-family="none" font-weight="none" font-size="none" text-anchor="none" style="mix-blend-mode: normal"><g transform="scale(37.50004,37.50004)"><g id="Layer_x0020_1" fill="#ffffff" fill-rule="nonzero"><path d="M5.56908,2.48693c-0.06303,-0.14363 -0.13645,-0.27755 -0.22042,-0.40203c-0.08313,-0.12323 -0.17669,-0.23678 -0.28087,-0.34095c-0.10449,-0.1045 -0.21839,-0.19693 -0.34143,-0.27786c-0.12472,-0.08202 -0.26002,-0.1535 -0.40559,-0.21493c-0.14404,-0.06088 -0.29103,-0.1071 -0.44147,-0.1381c-0.14922,-0.03074 -0.30305,-0.0464 -0.46202,-0.0464h-0.02934c-0.15952,0 -0.31454,0.01663 -0.46521,0.04888c-0.15156,0.03244 -0.2991,0.08054 -0.4427,0.14327c-0.14379,0.06302 -0.27802,0.13712 -0.40253,0.22217c-0.12417,0.08482 -0.23832,0.18035 -0.34227,0.28647c-0.10351,0.10525 -0.19559,0.22055 -0.27689,0.34564c-0.08142,0.12529 -0.15235,0.26108 -0.21339,0.40709c-0.06011,0.14375 -0.10501,0.2906 -0.13487,0.44095c-0.02985,0.15028 -0.04467,0.30446 -0.04467,0.46296v0.01346c0,0.15849 0.01578,0.31291 0.04721,0.46288c0.03162,0.1509 0.07905,0.29832 0.14212,0.44187c0.06239,0.14196 0.13579,0.2746 0.21962,0.39776c0.0846,0.12428 0.1795,0.23847 0.2841,0.34242c0.105,0.10436 0.2196,0.19708 0.34348,0.27861c0.12469,0.08206 0.25937,0.15331 0.40368,0.21417c0.14525,0.06139 0.29294,0.10768 0.4438,0.13861c0.14954,0.03067 0.30344,0.04611 0.46247,0.04611h0.02683c0.15953,0 0.31456,-0.01662 0.46552,-0.04886c0.15255,-0.03258 0.30084,-0.08066 0.44532,-0.14325c0.14447,-0.06272 0.2786,-0.13692 0.40326,-0.22234c0.12379,-0.08481 0.23729,-0.18033 0.3414,-0.28628c0.10344,-0.10546 0.19595,-0.22056 0.27743,-0.34543c0.08194,-0.12558 0.15292,-0.26115 0.21284,-0.40688c0.05794,-0.14142 0.10212,-0.28658 0.13202,-0.43596c0.02965,-0.14816 0.04475,-0.29968 0.04475,-0.455v-0.02681c0,-0.15648 -0.01635,-0.30919 -0.04798,-0.45761c-0.03237,-0.15192 -0.08083,-0.30021 -0.14419,-0.44423v-0.00041zM5.52532,1.96574c0.09028,0.13383 0.16975,0.27901 0.2386,0.43585l0.00015,-0.00007c0.06907,0.157 0.122,0.31918 0.15753,0.48589c0.03493,0.16389 0.05298,0.33136 0.05298,0.50178v0.02681c0,0.16929 -0.0165,0.33469 -0.04892,0.49667c-0.03218,0.16076 -0.08055,0.31899 -0.14451,0.47512c-0.06504,0.15818 -0.14214,0.30542 -0.23117,0.44187c-0.08949,0.13715 -0.19089,0.26334 -0.3041,0.37877c-0.11398,0.11601 -0.23801,0.22042 -0.37306,0.31295c-0.13417,0.09193 -0.2802,0.17252 -0.43909,0.2415c-0.15886,0.06882 -0.32051,0.12139 -0.48531,0.15659c-0.1664,0.03554 -0.33616,0.05386 -0.50968,0.05386h-0.02683c-0.17115,0 -0.33921,-0.01712 -0.50497,-0.05111c-0.16443,-0.03372 -0.32543,-0.08418 -0.4838,-0.15112c-0.15596,-0.06577 -0.30202,-0.14311 -0.43785,-0.2325c-0.13663,-0.08992 -0.26236,-0.19153 -0.37681,-0.30528c-0.11455,-0.11383 -0.21809,-0.2383 -0.30994,-0.37325c-0.09091,-0.13356 -0.17071,-0.27785 -0.23878,-0.43276c-0.06894,-0.1569 -0.12082,-0.31822 -0.15546,-0.48354c-0.03475,-0.16585 -0.05221,-0.33473 -0.05221,-0.50621v-0.01346c0,-0.17169 0.01621,-0.33947 0.04885,-0.50379c0.03262,-0.16425 0.08168,-0.3247 0.14737,-0.48178c0.06566,-0.15706 0.14267,-0.30422 0.23172,-0.44125c0.08918,-0.13723 0.19014,-0.26365 0.30356,-0.37898c0.11389,-0.11626 0.23859,-0.22068 0.37393,-0.31313c0.13492,-0.09216 0.28082,-0.17266 0.43753,-0.24134c0.15721,-0.06868 0.31837,-0.12125 0.48353,-0.15661c0.16608,-0.03555 0.33584,-0.05388 0.50937,-0.05388h0.02934c0.17121,0 0.33921,0.01734 0.50452,0.0514c0.1641,0.03381 0.3244,0.08422 0.48147,0.1506c0.1572,0.06633 0.30389,0.1439 0.43976,0.23326c0.13755,0.09046 0.26287,0.19179 0.37559,0.30453c0.11335,0.11333 0.21552,0.23743 0.30671,0.37261z"></path><path d="M5.70173,3.94011c0.01011,-0.04363 0.01897,-0.08761 0.02656,-0.13193c0.02185,-0.12758 0.03296,-0.25821 0.03296,-0.39218v-0.02681c0,-0.13974 -0.01293,-0.27605 -0.03802,-0.40855c-0.00946,-0.04996 -0.02063,-0.0995 -0.03348,-0.14859l-0.24871,0.52747v0.00042c-0.00596,0.01251 -0.00952,0.02422 -0.01079,0.03514c-0.00128,0.01107 -0.00064,0.02177 0.00184,0.03208c0.00115,0.00476 0.0027,0.00978 0.00481,0.01514c0.00117,0.00296 0.00247,0.00563 0.00391,0.00789l0.00417,0.0075l0.25675,0.48243zM5.93829,3.84401c-0.02386,0.13929 -0.05967,0.2765 -0.10705,0.41191l-0.08019,0.22916l-0.11398,-0.21416l-0.3765,-0.70744c-0.00887,-0.01407 -0.01608,-0.02868 -0.022,-0.04369c-0.00522,-0.01323 -0.0095,-0.02756 -0.01314,-0.04263c-0.00857,-0.03553 -0.01093,-0.07097 -0.00684,-0.10624c0.00404,-0.03477 0.01395,-0.06901 0.02996,-0.10264l0.00016,0.00007l0.36291,-0.76967l0.10555,-0.22385l0.08986,0.23094c0.05513,0.14168 0.09721,0.28708 0.12536,0.43572c0.02785,0.14705 0.04219,0.29645 0.04219,0.44771v0.02681c0,0.14493 -0.01222,0.2875 -0.0363,0.42802z"></path><path d="M4.63156,1.40787c-0.03805,-0.02307 -0.07694,-0.04517 -0.1167,-0.06628c-0.11489,-0.06104 -0.23541,-0.11255 -0.36194,-0.15429l-0.02545,-0.00841c-0.13281,-0.04381 -0.2662,-0.07424 -0.39956,-0.09188c-0.05051,-0.00668 -0.10122,-0.01159 -0.1521,-0.01476l0.42311,0.40158c0.00994,0.0095 0.02005,0.01659 0.03028,0.02133c0.0095,0.0044 0.01992,0.00704 0.03122,0.00797l0,0.00003c0.00633,0.00051 0.01172,0.00072 0.01567,0.0005c0.00384,-0.00022 0.00696,-0.00059 0.00911,-0.00114l0.00833,-0.00208l0.53803,-0.09257zM4.61486,1.15326c0.12352,0.06562 0.24254,0.14273 0.35743,0.23102l0.19258,0.148l-0.23924,0.04116l-0.79626,0.137l-0.00001,-0.00007c-0.01427,0.00319 -0.02811,0.00503 -0.0416,0.0058c-0.01591,0.00091 -0.03059,0.00061 -0.04441,-0.00053h-0.00041c-0.03572,-0.00295 -0.07004,-0.01191 -0.10289,-0.02713c-0.03148,-0.0146 -0.06079,-0.0347 -0.08778,-0.0605l-0.61747,-0.58605l-0.17948,-0.17035l0.2474,-0.01298c0.15128,-0.00793 0.30242,-0.00231 0.45271,0.01757c0.1487,0.01967 0.2952,0.05286 0.43873,0.10021l0.02545,0.00841c0.13834,0.04563 0.26996,0.10188 0.39528,0.16846z"></path><path d="M1.84677,1.66477c-0.13825,0.12511 -0.25999,0.26421 -0.36415,0.41557c-0.10235,0.14872 -0.18762,0.30924 -0.25481,0.4799l0.49978,-0.28405l0.00042,-0.00042c0.01231,-0.00693 0.02203,-0.01446 0.02923,-0.02252c0.00654,-0.00732 0.01195,-0.01648 0.01627,-0.02738c0.00256,-0.00647 0.00438,-0.01156 0.00512,-0.01462c0.00078,-0.00322 0.00127,-0.00615 0.00138,-0.00871l0.00042,-0.00875l0.06636,-0.52901zM1.30762,1.95951c0.16519,-0.24005 0.37152,-0.45202 0.61539,-0.63006l0.19894,-0.14524l-0.03061,0.24398l-0.09927,0.79142l-0.00011,-0.00001c-0.00111,0.01431 -0.00343,0.02817 -0.00669,0.04164c-0.00396,0.01635 -0.00851,0.03044 -0.01345,0.04295c-0.01304,0.03295 -0.03173,0.06324 -0.05627,0.09071c-0.02344,0.02625 -0.05119,0.04855 -0.08339,0.06669l-0.00007,-0.00014l-0.73966,0.42038l-0.22255,0.12649l0.06756,-0.2469c0.07984,-0.2918 0.20444,-0.56106 0.37019,-0.80191z"></path><path d="M1.2698,4.37204c0.01855,0.04112 0.03826,0.08158 0.05915,0.12138c0.05999,0.11432 0.13053,0.22477 0.21206,0.33137l0.01629,0.02128c0.08613,0.11261 0.182,0.2175 0.28625,0.3123c0.03591,0.03265 0.07278,0.06407 0.11053,0.09415l-0.12439,-0.57795v-0.00042c-0.00281,-0.0133 -0.00709,-0.02468 -0.01275,-0.03418c-0.0055,-0.00924 -0.01264,-0.01736 -0.02131,-0.02439c-0.00347,-0.00281 -0.00758,-0.00572 -0.01259,-0.00874c-0.00335,-0.00202 -0.00614,-0.00349 -0.00815,-0.00422l-0.00792,-0.00333l-0.49716,-0.22726zM1.14062,4.59175c-0.06634,-0.12643 -0.12137,-0.25711 -0.16556,-0.3921l-0.07548,-0.23056l0.2209,0.10098l0.73016,0.33378c0.01551,0.00583 0.02953,0.01276 0.0424,0.02051c0.0121,0.00729 0.02438,0.01622 0.03676,0.02624c0.02796,0.02267 0.05126,0.04937 0.06964,0.08022c0.01782,0.02991 0.03074,0.06309 0.0385,0.09962l0.00009,-0.00002l0.1813,0.84238l0.05202,0.24169l-0.2116,-0.12878c-0.12786,-0.07782 -0.24816,-0.16857 -0.35952,-0.26983c-0.11341,-0.10314 -0.21794,-0.21755 -0.31208,-0.34063l-0.01629,-0.02128c-0.0879,-0.11493 -0.16482,-0.23567 -0.23122,-0.3622z"></path><path d="M3.56555,5.7513c0.04467,-0.003 0.08936,-0.00729 0.13408,-0.01289c0.13023,-0.01631 0.2584,-0.04339 0.3846,-0.08163l0.02566,-0.00778c0.13288,-0.04026 0.25952,-0.09223 0.37976,-0.15504c0.04495,-0.02348 0.08913,-0.04859 0.13253,-0.07528l-0.57672,-0.085h-0.00042c-0.01432,-0.00217 -0.02673,-0.00226 -0.03726,-0.00036c-0.01035,0.00187 -0.02033,0.00567 -0.02993,0.0113c-0.0049,0.00287 -0.00923,0.0057 -0.01271,0.00843l0.00016,0.0002c-0.00291,0.00231 -0.00531,0.00449 -0.00701,0.00648l-0.00583,0.00625l-0.38692,0.38533zM3.72547,5.95007c-0.13951,0.01747 -0.28101,0.02294 -0.42465,0.01687l-0.24292,-0.01028l0.17209,-0.17139l0.56944,-0.5671c0.01049,-0.01189 0.02169,-0.02232 0.03339,-0.0316h0.00042c0.01214,-0.00961 0.02456,-0.01792 0.03713,-0.0253c0.03107,-0.01824 0.06437,-0.03071 0.09993,-0.03713c0.03474,-0.00627 0.07022,-0.00679 0.10642,-0.00131l-0.00001,0.00006l0.84181,0.12408l0.24539,0.03617l-0.19498,0.15299c-0.11872,0.09315 -0.24574,0.17552 -0.38094,0.24614c-0.13194,0.06893 -0.27081,0.12592 -0.41643,0.17004l-0.02566,0.00778c-0.1407,0.04263 -0.28078,0.07248 -0.42043,0.08996z"></path><path d="M3.71745,2.5829c-0.00741,-0.00981 -0.0145,-0.01649 -0.02125,-0.02012c-0.00456,-0.00245 -0.01024,-0.00365 -0.01698,-0.00365v-0.00042c-0.00448,0 -0.00876,0.00029 -0.0127,0.00101c-0.00277,0.0005 -0.00547,0.00128 -0.00806,0.0024l-0.00917,0.00375l-0.93392,0.30616c-0.01505,0.00492 -0.0249,0.01083 -0.02965,0.01769c-0.00557,0.00806 -0.00822,0.02113 -0.00801,0.03907l0.01185,0.98453c0.0002,0.01505 0.00437,0.02896 0.01189,0.03929c0.00407,0.0056 0.00945,0.00965 0.01574,0.01102l0.00958,0.00292l0.92169,0.29425l0.01042,0.00375c0.00162,0.0007 0.00412,0.00133 0.00723,0.00187c0.00359,0.00063 0.00808,0.00087 0.01312,0.00087c0.0074,0 0.01349,-0.00119 0.01809,-0.00365c0.00609,-0.00326 0.01253,-0.00939 0.0193,-0.01857l0.00042,-0.00042l0.59025,-0.79889c0.00548,-0.00992 0.00972,-0.01952 0.01256,-0.02862c0.00215,-0.00689 0.0033,-0.01328 0.0033,-0.01898c0,-0.00342 -0.00095,-0.0078 -0.00273,-0.01306c-0.00285,-0.00843 -0.0068,-0.01721 -0.0117,-0.02635l-0.59084,-0.77543l-0.00041,-0.00042zM3.79703,2.37529c0.03406,0.01831 0.06426,0.04465 0.09041,0.07928l-0.00006,0.00005l0.59418,0.77982l0.0075,0.01167c0.01422,0.02465 0.02539,0.04817 0.03301,0.07066c0.0094,0.02773 0.0144,0.05479 0.0144,0.08139c0,0.02689 -0.00461,0.05451 -0.0133,0.08231c-0.00794,0.02546 -0.0195,0.05102 -0.03411,0.07615l-0.00667,0.01l-0.59418,0.80422l0.00007,0.00005c-0.02592,0.03518 -0.05645,0.06176 -0.09096,0.08024c-0.03715,0.01989 -0.07669,0.02949 -0.11809,0.02949c-0.01593,0 -0.03242,-0.00117 -0.04979,-0.00421c-0.0166,-0.00291 -0.03374,-0.00774 -0.05158,-0.01517l-0.90715,-0.28961c-0.06007,-0.01345 -0.10811,-0.04774 -0.14175,-0.09402c-0.03288,-0.04523 -0.05109,-0.10244 -0.05189,-0.1618l-0.01185,-0.98453c-0.00074,-0.06307 0.01428,-0.11727 0.04551,-0.16239c0.03206,-0.04632 0.0782,-0.07954 0.1388,-0.09936l0.93388,-0.30614c0.01525,-0.0059 0.03045,-0.01006 0.04561,-0.01283c0.01701,-0.0031 0.03372,-0.00436 0.0502,-0.00435v-0.00042c0.0417,0 0.08102,0.0097 0.11781,0.02949z"></path><path d="M3.62731,2.39952l0.28416,-0.85872l0.20249,0.06666l-0.28415,0.85872z"></path><path d="M4.43865,3.29965l0.90446,0.0085l-0.00167,0.2125l-0.90446,-0.0085z"></path><path d="M3.81644,4.35247l0.25185,0.853l-0.20416,0.06l-0.25185,-0.853z"></path><path d="M2.68091,4.10307l-0.72423,0.54607l-0.12833,-0.16999l0.72423,-0.54607z"></path><path d="M2.51407,2.91276l-0.74011,-0.51999l0.1225,-0.17416l0.74011,0.52z"></path></g><g id="Layer_x0020_1_0" fill="none" fill-rule="evenodd"><rect x="0" y="0" width="6.82666" height="6.82666"></rect></g></g></g></svg>